inDegrees=no
num_controls=7
num_derivatives=13
num_iterations=82
num_multipliers=7
num_parameters=0
num_slacks=7
num_states=26
objective=0.517023
objective_accelerations=0.039613
objective_balance=0.002207
objective_effort=0.043982
objective_height=0.419574
objective_ligament=0.011648
solver_duration=1096.993748
status=Solve_Succeeded
success=true
DataType=double
version=3
OpenSimVersion=4.5
endheader
time	/jointset/ground_pelvis/pelvis_tilt/value	/jointset/ground_pelvis/pelvis_tx/value	/jointset/ground_pelvis/pelvis_ty/value	/jointset/hip_l/hip_flexion_l/value	/jointset/hip_l/hip_adduction_l/value	/jointset/hip_l/hip_rotation_l/value	/jointset/back/lumbar_extension/value	/jointset/patellofemoral_l/patellar_flexion_l/value	/jointset/knee_l/knee_flexion_l/value	/jointset/knee_l/knee_adduction_l/value	/jointset/knee_l/knee_rotation_l/value	/jointset/ankle_l/ankle_angle_l/value	/jointset/subtalar_l/subtalar_angle_l/value	/jointset/ground_pelvis/pelvis_tilt/speed	/jointset/ground_pelvis/pelvis_tx/speed	/jointset/ground_pelvis/pelvis_ty/speed	/jointset/hip_l/hip_flexion_l/speed	/jointset/hip_l/hip_adduction_l/speed	/jointset/hip_l/hip_rotation_l/speed	/jointset/back/lumbar_extension/speed	/jointset/patellofemoral_l/patellar_flexion_l/speed	/jointset/knee_l/knee_flexion_l/speed	/jointset/knee_l/knee_adduction_l/speed	/jointset/knee_l/knee_rotation_l/speed	/jointset/ankle_l/ankle_angle_l/speed	/jointset/subtalar_l/subtalar_angle_l/speed	/forceset/tau_hip_flexion_l	/forceset/tau_hip_adduction_l	/forceset/tau_hip_rotation_l	/forceset/tau_knee_flexion_l	/forceset/tau_ankle_angle_l	/forceset/tau_subtalar_angle_l	/forceset/tau_lumbar_extension	lambda_cid13_p0	lambda_cid13_p1	lambda_cid13_p2	lambda_cid13_p3	lambda_cid13_p4	lambda_cid13_p5	lambda_cid14_p0	/jointset/ground_pelvis/pelvis_tilt/accel	/jointset/ground_pelvis/pelvis_tx/accel	/jointset/ground_pelvis/pelvis_ty/accel	/jointset/hip_l/hip_flexion_l/accel	/jointset/hip_l/hip_adduction_l/accel	/jointset/hip_l/hip_rotation_l/accel	/jointset/back/lumbar_extension/accel	/jointset/patellofemoral_l/patellar_flexion_l/accel	/jointset/knee_l/knee_flexion_l/accel	/jointset/knee_l/knee_adduction_l/accel	/jointset/knee_l/knee_rotation_l/accel	/jointset/ankle_l/ankle_angle_l/accel	/jointset/subtalar_l/subtalar_angle_l/accel	gamma_cid13_p0	gamma_cid13_p1	gamma_cid13_p2	gamma_cid13_p3	gamma_cid13_p4	gamma_cid13_p5	gamma_cid14_p0
1	-0.1588650770478321	-0.08956698969517297	0.7276249534313078	1.253373255835451	-0.3284052588742914	-0.002138091921246649	-0.9599260608723083	1.1616826253143	1.161682625313095	-0.08148889834359069	-0.1745321860950717	0.145811910273062	0.01245058671011651	0.1074624549824139	0.02707065833554416	0.06613587237594504	-0.2913850892741672	0.0001133180698151321	-0.06185999987811162	-0.0020226385735347	-0.1597395944274076	-0.1597395944274164	0.0004450471925298064	-2.967759826497958e-06	0.01619540660246373	0.006989059461118301	-0.3984367763083974	0.03931827652770008	-0.005215741347517763	-0.2911861221446795	0.1048306067781564	0.02435990106348771	0.4347867833944579	-17.00145326829028	-6.869162844163252	-0.1970209279465736	6.252350794082851	-784.8873667806873	-51.79654419695866	-1.770643028939374	1.037106136127317	0.1657678736780442	1.229562222807153	-4.573633131757528	-0.0165527422115666	-1.393465101558275	0.2898810851699977	-4.082885189014183	-4.08288518901406	-0.204969028141665	-0.01017153654701105	-0.81669423741655	-0.2952288823896971	-9.273220325664161e-09	-7.660870264946757e-09	3.415931417226749e-08	5.352349107241054e-09	-2.209331734919465e-08	5.106208456465361e-08	-9.821500617545588e-09
1.01	-0.1577390108214353	-0.08928790413458795	0.7283476775089128	1.25023130322974	-0.328404326589854	-0.002826555925879944	-0.9599308119193964	1.159881173345613	1.159881173345027	-0.08149359181379248	-0.1745320074250108	0.1459331597115738	0.01250648826361745	0.117754913842561	0.02875771215412778	0.07840882516316196	-0.3370273810108072	8.201204853336643e-05	-0.07583014705589178	0.001116021741543172	-0.2005731327099515	-0.200573132709958	-0.001387722351826031	4.539047644251903e-05	0.0080502177321087	0.004199740124866636	-0.398157747125417	0.03960964407318574	-0.005248048876960773	-0.2909968035813916	0.1047205160807625	0.02441172526386952	0.4349967897392401	-17.03739798595112	-6.892367058450329	-0.1853365892301935	6.074553717650616	-785.062903925231	-51.82764514061405	-1.808246551618905	1.025933164107677	0.1718656615427402	1.226137976656323	-4.56282153148674	0.004910530449159787	-1.398403322369948	0.3323973975427231	-4.086935632004328	-4.086935632003874	-0.1730352578396801	0.0133538631517896	-0.8140721803854891	-0.2695129591243707	-1.579965418860727e-08	-1.510192614724236e-08	4.62289661631187e-08	1.376105982803887e-08	-3.057854697393035e-08	5.600453691752862e-08	-1.260014760899639e-08
1.02	-0.1565098965258253	-0.08899160973069692	0.729193126348386	1.246632268839284	-0.3284034413531385	-0.003654644161552558	-0.9599028685850528	1.157670716497266	1.157670716497308	-0.08151673384744891	-0.1745311423007363	0.1459728290676716	0.01253475072377904	0.1280720688286953	0.03051242699674867	0.09068082474958933	-0.3828014462221994	0.0001039085286870274	-0.08978484609297584	0.004516237771272138	-0.2415405703576887	-0.2415405703576943	-0.003244665506469211	0.0001343230902274106	-0.0001206098798638702	0.001461240793355876	-0.3978787179423952	0.03990101161867782	-0.005280356406325051	-0.2908074850181075	0.1046104253833563	0.02446354946425308	0.4352067960840548	-17.08405261615784	-6.913922050451681	-0.1736569780479145	5.934813020162393	-785.3831808945018	-51.85172987152274	-1.854913099159188	1.042045361324583	0.1793000784856769	1.229371582649282	-4.599987826708043	-0.005912241924527106	-1.390375473419121	0.3421922281004561	-4.109665062052809	-4.109665062052959	-0.2098037501991364	-0.002056661043922044	-0.8218219857397735	-0.2850648814414635	-1.926610045336636e-08	-2.430390457622221e-08	5.814805653393214e-08	1.456952361267578e-08	-3.379996283307228e-08	6.134483431599255e-08	-1.609169225143242e-08
1.03	-0.1551778511317549	-0.088677285614247	0.7301611650417208	1.242575362157263	-0.3284020910924529	-0.004622081331589444	-0.9598383024069677	1.155050299345772	1.155050299346122	-0.08155859595431512	-0.1745292505098514	0.1459309049652752	0.01253594860556671	0.1383048498827044	0.03237830197406168	0.1029143996727789	-0.428549999651308	0.0001723991268945141	-0.103692084060466	0.00857207653299109	-0.2825272457271461	-0.2825272457271395	-0.005132263162380546	0.0002414636022302457	-0.00824405204129011	-0.001207192193103013	-0.3982839037265776	0.04030595034217154	-0.005322881672474845	-0.2900970991296463	0.1044223291172823	0.0246106990605663	0.4362899923483696	-17.1497519324929	-6.981951810376967	-0.1449623600085276	5.503474640723081	-785.8722488071908	-51.87731991834324	-1.910969337741094	1.00906872408445	0.1941201245838186	1.218465897864884	-4.557808244020942	0.01416581973247482	-1.389340529581389	0.4635415029890358	-4.090822702727239	-4.090822702725156	-0.1789251054762639	0.0167300196508987	-0.8045839126180984	-0.2555643152636792	-2.270132235487866e-08	-3.352385160261721e-08	7.006561056168397e-08	1.530043385714774e-08	-3.696766630685099e-08	6.668919135777883e-08	-1.959051135969484e-08
1.04	-0.1537444430778298	-0.08834352496457684	0.7312511625744302	1.238061866112331	-0.3283998687039951	-0.005728279395501322	-0.9597279254806981	1.152020484654907	1.152020484655586	-0.08161947150413887	-0.1745263611914129	0.1458083507250076	0.01251089579588618	0.1483446008025341	0.03439973364080164	0.1150725926245288	-0.4741193188007449	0.0002783340866741309	-0.1175370248746728	0.01367838740597361	-0.3234200782300027	-0.3234200782299835	-0.007047354105858404	0.0003338286073719087	-0.01624663745367334	-0.003788897500184805	-0.3986890895107837	0.04071088906566492	-0.005365406938566161	-0.2893867132411885	0.104234232851208	0.02475784865687811	0.4373731886126577	-17.22631000586972	-7.048384531900374	-0.1161747678241368	5.108798220360542	-786.5092375713751	-51.89673575774778	-1.976756714355176	1.003439334488517	0.2104114163712806	1.214295188361432	-4.564140970773799	0.001576630389833501	-1.377916042762534	0.5522866503531447	-4.090896488732601	-4.090896488732668	-0.2153024077124471	-0.00501176241627998	-0.7976506359308371	-0.2677193455659939	-2.521707932138526e-08	-4.220443043385309e-08	7.87353394093822e-08	1.536051210476619e-08	-4.014076201112952e-08	6.826921113202689e-08	-2.216686259953498e-08
1.05	-0.1522116905198427	-0.08798877568775382	0.732462277857989	1.23309384479242	-0.3283963972909805	-0.006972558418343174	-0.9595613067988619	1.14858234918484	1.148582349185312	-0.08169966104869743	-0.1745226546047929	0.1456063327213734	0.01246044824806411	0.1581630499805378	0.03657570398286659	0.1271289576837375	-0.5194255086112437	0.0004245493646370647	-0.1313064249102163	0.01981562241776429	-0.3641772468851759	-0.3641772468851748	-0.008991110127381562	0.0004030801626982398	-0.02414047071330129	-0.006284606039182463	-0.3985061859661171	0.04108232520405473	-0.005416051571768592	-0.2886254529997676	0.104281940600937	0.02491217567377321	0.4379595651561962	-17.19203769312089	-7.139624652860205	-0.08082263575077116	4.631567495630841	-786.5993216974689	-51.94773440489603	-2.052678044026658	0.9646163784493341	0.2250302629658116	1.198072509470959	-4.504945816479903	0.02243100440909566	-1.374621710970012	0.6699829450153444	-4.063656750310106	-4.063656750312663	-0.1840100214871647	0.01225237400593499	-0.7827788820896953	-0.2380975652531332	-2.770410300867293e-08	-5.086815400899025e-08	8.730357372020376e-08	1.539962685248296e-08	-4.331402622261117e-08	6.973159536666442e-08	-2.471438671848693e-08
1.06	-0.1505820397362883	-0.08761149862354072	0.7337933098610943	1.227674544008326	-0.3283912063196217	-0.0083541653869144	-0.9593282075632222	1.144737536088933	1.144737536089217	-0.08179930771785969	-0.1745183837507433	0.1453258705429189	0.01238552342341428	0.1677242459182639	0.03890529111881739	0.139055936533886	-0.564375211633407	0.0006222457589916827	-0.1450026140265681	0.0269744981664948	-0.4047556033963636	-0.4047556033963803	-0.01093877903350229	0.0004466820979765105	-0.03193547241736037	-0.008684352865638831	-0.3983232824214857	0.04145376134243955	-0.00546669620494486	-0.2878641927583503	0.1043296483506671	0.02506650269066257	0.4385459416996983	-17.16860461659774	-7.229399801070675	-0.04520953272406891	4.188729043914214	-786.8382187077408	-51.99406257870857	-2.139149304707081	0.9519886864328024	0.2411347751486857	1.188417946549482	-4.492843613106818	0.01187285366809324	-1.363273858924304	0.7566147977411273	-4.055134059935456	-4.055134059935445	-0.2160849846319697	-0.01014168642603901	-0.7778843248166891	-0.248527003057684	-3.020252009038344e-08	-5.889823734993555e-08	9.388928329146239e-08	1.632056950400178e-08	-4.710556592305236e-08	6.984945391486989e-08	-2.668239398134245e-08
1.07	-0.1488580752373345	-0.08721015720959245	0.7352429284281561	1.221807588477123	-0.3283837774770981	-0.009872256232475863	-0.959018493051667	1.140487821178797	1.140487821179274	-0.08191857296021343	-0.1745137789757957	0.1449678863565142	0.01228706055884269	0.1770226329262171	0.04138862562650612	0.1508424104558692	-0.608948223446215	0.000874938647005158	-0.1585968912902753	0.03513307283625784	-0.4451588449661091	-0.4451588449661073	-0.01291918391639307	0.0004740848098572828	-0.03965099287759395	-0.01099115045105793	-0.397768540023921	0.0418506947400062	-0.005523338380354869	-0.2870029115584912	0.1044660515352139	0.02523476691751302	0.4388262412802148	-17.09389900859891	-7.336924994984598	-0.00366012525336659	3.708591044383085	-786.7239836745024	-52.06337850492003	-2.236657300385429	0.9118580918441456	0.2557813540217879	1.169946911715204	-4.429383053089524	0.0336764194234543	-1.354732047655219	0.8701791053324802	-4.028633404223548	-4.028633404220653	-0.189772832275226	0.00917587766999412	-0.7668340109822314	-0.2191964755749811	-3.270154320371219e-08	-6.689461642310468e-08	1.003695394191272e-07	1.728841789508453e-08	-5.092999261758716e-08	6.989579513932898e-08	-2.861957587951199e-08
1.08	-0.1470425079915359	-0.08678321273747776	0.7368096486937767	1.215496932210238	-0.3283734799230982	-0.01152573532815951	-0.9586222527326661	1.135834931013209	1.135834931013895	-0.08205779316979946	-0.1745089012482108	0.1445330573446344	0.01216604165055827	0.1860447952888727	0.04402590275210675	0.162476276245692	-0.6531153587678757	0.001195988057246027	-0.1720802640564494	0.0442796596555715	-0.4853906544850292	-0.4853906544850088	-0.01492977248558795	0.000501272628730583	-0.04730443751204321	-0.0131955616081144	-0.3972137976263599	0.04224762813756971	-0.005579980555781778	-0.2861416303586335	0.1046024547197576	0.0254030311443591	0.439106540860724	-17.03006523084564	-7.44312488425643	0.03833857526884588	3.260679331624719	-786.7601583995928	-52.12985425778326	-2.345709216261711	0.8967437573730469	0.2719232987313192	1.157896320117452	-4.411668314877436	0.02554415811349256	-1.341092959417802	0.9542172276512757	-4.020847649770324	-4.020847649770311	-0.2221217218927969	-0.01018466502768753	-0.7654691596594186	-0.2280497173850969	-3.444381285562284e-08	-7.46503355283508e-08	1.026242008399892e-07	1.754154843028796e-08	-5.380853257737395e-08	6.826000160137175e-08	-2.994142605485385e-08
